# xmcd CD database file
#
# Track frame offsets:
#	150
#	32790
#	62280
#	98055
#	134700
#	187750
#
# Disc length: 2708 seconds
#
# Revision: 0
# Processed by: cddbd v1.5.1PL0 Copyright (c) Steve Scherf et al.
# Submitted via: CDex 1.51
#
DISCID=470a9206
DTITLE=Motohiko Hino - Flash
DYEAR=1999
DGENRE=Jazz
TTITLE0=Overhang Blues
TTITLE1=Onece Upon A Summertime
TTITLE2=My Favorite Things
TTITLE3=St. Thomas
TTITLE4=Norwegian Wood
TTITLE5=Flash
EXTD=YEAR: 1999
EXTT0=
EXTT1=
EXTT2=
EXTT3=
EXTT4=
EXTT5=
PLAYORDER=
